#!OML:ASF E:\acrobat2\Project_11_07_03\Capture day 1\Session 1\Acrobat.ASF
:FULLY-SPECIFIED
:DEGREES
161
root 7.19014 17.0939 -15.9233 15.8348 34.4727 7.16164
lowerback 3.65514 0.663059 0.328939
upperback -0.918318 0.86419 -1.325
thorax -2.9682 0.413599 -1.60042
lowerneck -0.778033 -12.5482 -5.0414
upperneck -5.40732 -16.3801 13.6028
head 0.101008 -8.2848 4.57847
rclavicle -3.71727e-014 -1.19271e-014
rhumerus 29.2098 22.6818 -15.4397
rradius 89.5558
rwrist 7.56995
rhand -22.9421 -31.0354
rfingers 7.12502
rthumb 3.49905 -60.9865
lclavicle -3.71727e-014 -1.19271e-014
lhumerus -65.5487 -31.5756 74.1039
lradius 12.8694
lwrist -6.47819
lhand -4.0496 -3.23463
lfingers 7.12502
lthumb 21.7063 25.5684
rfemur -19.9115 -5.5153 25.1136
rtibia 40.498
rfoot -34.1042 -3.17013
rtoes 17.335
lfemur -33.5261 -2.79831 -1.58169
ltibia 87.7057
lfoot 23.6096 6.39523
ltoes 38.7541
162
root 7.25654 17.2308 -15.728 15.7357 32.1003 6.86335
lowerback 2.84751 1.10025 0.43395
upperback -0.680993 1.45701 -1.2906
thorax -2.25031 0.713391 -1.63672
lowerneck -1.14621 -12.284 -5.07319
upperneck -5.19078 -16.0575 13.038
head 0.147959 -8.09881 4.89428
rclavicle 2.5842e-015 1.98785e-014
rhumerus 32.3286 21.4291 -12.5731
rradius 90.1987
rwrist 8.55638
rhand -22.6124 -30.4569
rfingers 7.12502
rthumb 3.8174 -60.4025
lclavicle 2.5842e-015 1.98785e-014
lhumerus -65.6538 -31.4757 73.1406
lradius 12.4037
lwrist -5.57825
lhand -4.55371 -3.44328
lfingers 7.12502
lthumb 21.2222 25.415
rfemur -18.1066 -4.88632 24.6283
rtibia 38.135
rfoot -31.9056 -1.74362
rtoes 17.2636
lfemur -35.2878 -3.06694 -2.38934
ltibia 89.4548
lfoot 22.1173 6.05455
ltoes 38.1072
163
root 7.33657 17.3799 -15.5283 15.5015 29.6854 6.43385
lowerback 2.57268 1.51518 1.04992
upperback -0.751788 2.02842 -1.47769
thorax -2.12317 0.990263 -2.19289
lowerneck -1.60905 -11.9813 -4.92611
upperneck -4.5941 -15.6953 12.7642
head 0.350108 -7.88803 4.73477
rclavicle -7.30534e-014 4.85035e-014
rhumerus 35.4352 20.4989 -10.176
rradius 90.4087
rwrist 9.25614
rhand -22.2868 -30.2135
rfingers 7.12502
rthumb 4.13187 -60.1531
lclavicle -7.30534e-014 4.85035e-014
lhumerus -66.4113 -31.5972 72.1544
lradius 12.1809
lwrist -4.42148
lhand -4.60236 -3.174
lfingers 7.12502
lthumb 21.1754 25.6895
rfemur -16.154 -4.18017 24.2435
rtibia 35.75
rfoot -29.3589 -0.569075
rtoes 16.3586
lfemur -36.8247 -3.40323 -3.09522
ltibia 90.8174
lfoot 20.3722 5.57344
ltoes 37.4648
164
root 7.42702 17.5432 -15.3235 15.0596 27.3477 5.90849
lowerback 2.1815 1.94702 1.75338
upperback -0.568481 2.62356 -1.50834
thorax -1.65596 1.28651 -2.62148
lowerneck -2.24435 -11.7955 -4.78783
upperneck -4.07205 -15.4816 12.3131
head 0.556361 -7.748 4.5016
rclavicle -8.7664e-014 1.59028e-015
rhumerus 38.1874 19.3268 -7.89083
rradius 90.523
rwrist 9.82324
rhand -21.9058 -29.8064
rfingers 7.12502
rthumb 4.49976 -59.7386
lclavicle -8.7664e-014 1.59028e-015
lhumerus -65.8269 -30.6785 69.6074
lradius 11.6891
lwrist -4.77764
lhand -4.38813 -2.92251
lfingers 7.12502
lthumb 21.3812 25.9178
rfemur -13.9795 -3.5999 23.9745
rtibia 33.3929
rfoot -26.5525 0.456924
rtoes 14.7576
lfemur -38.0638 -4.03096 -3.63133
ltibia 91.8738
lfoot 18.5989 5.34829
ltoes 37.6834
165
root 7.51407 17.7161 -15.1157 14.6173 24.8692 5.45511
lowerback 2.09561 2.40116 2.39725
upperback -0.499807 3.2452 -1.57133
thorax -1.46253 1.59483 -3.05846
lowerneck -2.59641 -11.6006 -4.70204
upperneck -3.5578 -15.2583 11.9314
head 0.721804 -7.6133 4.32612
rclavicle -6.75868e-014 -1.59028e-015
rhumerus 40.6467 18.374 -5.86761
rradius 90.6274
rwrist 10.1928
rhand -21.7503 -29.3983
rfingers 7.12502
rthumb 4.64984 -59.3273
lclavicle -6.75868e-014 -1.59028e-015
lhumerus -65.6205 -29.834 67.3871
lradius 11.2731
lwrist -5.105
lhand -4.31283 -2.71097
lfingers 7.12502
lthumb 21.4535 26.1211
rfemur -12.0357 -2.88305 23.6304
rtibia 31.3819
rfoot -23.6368 1.21667
rtoes 13.4108
lfemur -39.1485 -4.5752 -4.17478
ltibia 92.6572
lfoot 16.9598 4.96297
ltoes 37.1509
166
root 7.59856 17.8915 -14.9038 14.2652 22.1416 5.00976
lowerback 2.01934 2.95247 3.019
upperback -0.446229 3.99433 -1.67413
thorax -1.26315 1.96886 -3.52257
lowerneck -2.81945 -11.3685 -4.63928
upperneck -3.18208 -14.9738 11.5999
head 0.821825 -7.45625 4.19103
rclavicle -6.52014e-014 -5.56597e-015
rhumerus 42.9394 17.402 -3.91446
rradius 90.8511
rwrist 10.4425
rhand -21.8624 -29.3786
rfingers 7.12502
rthumb 4.54163 -59.3099
lclavicle -6.52014e-014 -5.56597e-015
lhumerus -66.0987 -29.673 66.4047
lradius 11.1192
lwrist -4.10355
lhand -4.1085 -2.08637
lfingers 7.12502
lthumb 21.6498 26.7232
rfemur -10.4223 -2.02047 23.2485
rtibia 29.7113
rfoot -20.4122 1.8506
rtoes 13.9461
lfemur -40.1827 -4.86048 -4.69243
ltibia 93.1841
lfoot 15.461 4.16026
ltoes 35.8851
167
root 7.68339 18.0687 -14.691 13.9605 19.3937 4.56468
lowerback 1.99201 3.5269 3.77995
upperback -0.360432 4.77709 -1.88556
thorax -1.01561 2.36262 -4.17166
lowerneck -3.40877 -11.2415 -4.16359
upperneck -2.65574 -14.8427 11.0464
head 0.992798 -7.36552 3.87472
rclavicle 1.35372e-013 -2.38542e-014
rhumerus 45.2446 16.4674 -2.50596
rradius 90.84
rwrist 10.86
rhand -21.7317 -29.4488
rfingers 7.12502
rthumb 4.66786 -59.3773
lclavicle 1.35372e-013 -2.38542e-014
lhumerus -66.8379 -29.9488 65.9993
lradius 11.1252
lwrist -2.43074
lhand -3.87406 -0.938251
lfingers 7.12502
lthumb 21.8749 27.8452
rfemur -9.03778 -1.44815 22.8626
rtibia 28.3065
rfoot -16.8159 2.21932
rtoes 15.0182
lfemur -41.2076 -5.19514 -5.08414
ltibia 93.4941
lfoot 14.0508 3.80467
ltoes 36.5901
